<?xml version="1.0" encoding="utf-8"?>
<!-- Generator: Adobe Illustrator 21.1.0, SVG Export Plug-In . SVG Version: 6.00 Build 0)  -->
<svg version="1.1" id="Layer_1" xmlns="http://www.w3.org/2000/svg" xmlns:xlink="http://www.w3.org/1999/xlink" x="0px" y="0px"
	 viewBox="0 0 400 400" style="enable-background:new 0 0 400 400;" xml:space="preserve">
<style type="text/css">
	.st0{fill:#EBFF30;}
</style>
<g>
	<path class="st0" d="M146.1,340c1.7,1.6,3.6,2.8,5.8,3.6c2.1,0.8,4.3,1.2,6.6,1.2c2.7,0,5.1-0.5,7.4-1.5l-9.7-11.1h13l4,4.9
		c1-1.5,1.8-3.2,2.3-5.1c0.6-1.9,0.9-4.1,0.9-6.4c0-3.3-0.5-6.1-1.6-8.5c-1-2.5-2.3-4.5-4-6.1c-1.7-1.6-3.7-2.8-5.8-3.6
		c-2.2-0.8-4.4-1.2-6.6-1.2s-4.4,0.4-6.6,1.2c-2.2,0.8-4.1,2-5.8,3.6s-3.1,3.6-4.1,6c-1,2.4-1.6,5.3-1.6,8.5c0,3.3,0.5,6.1,1.6,8.5
		C143,336.4,144.4,338.4,146.1,340z"/>
	<path class="st0" d="M0,1v399h400L0,1z M61.3,354.4H50v-40.2h11.4V354.4z M61.3,306.2H50v-9.6h11.4V306.2z M120.8,354.4H109
		l-26.2-41v41H71.5v-57.8h14l24,38.2v-38.2h11.3V354.4z M158.4,355.7c-3.9,0-7.7-0.7-11.3-2.1c-3.6-1.4-6.7-3.4-9.5-6
		c-2.7-2.6-4.9-5.8-6.5-9.5s-2.4-7.9-2.4-12.6s0.8-8.9,2.4-12.6c1.6-3.7,3.8-6.9,6.5-9.5c2.7-2.6,5.9-4.6,9.5-6
		c3.6-1.4,7.3-2.1,11.3-2.1c3.9,0,7.7,0.7,11.3,2.1c3.6,1.4,6.8,3.4,9.5,6c2.7,2.6,4.9,5.8,6.5,9.5c1.6,3.7,2.4,7.9,2.4,12.6
		c0,4.1-0.6,7.8-1.9,11.1s-3,6.3-5.2,8.9l8.9,9.6h-13.4l-3-3.3c-2.3,1.3-4.7,2.2-7.2,2.9C163.8,355.4,161.1,355.7,158.4,355.7z"/>
</g>
</svg>
