<?xml version="1.0" encoding="utf-8"?>
<!-- Generator: Adobe Illustrator 21.1.0, SVG Export Plug-In . SVG Version: 6.00 Build 0)  -->
<svg version="1.1" id="Layer_1" xmlns="http://www.w3.org/2000/svg" xmlns:xlink="http://www.w3.org/1999/xlink" x="0px" y="0px"
	 viewBox="0 0 195 195" style="enable-background:new 0 0 195 195;" xml:space="preserve">
<style type="text/css">
	.st0{fill:#FFFFFF;}
</style>
<title>Monogram</title>
<desc>Created with Sketch.</desc>
<path class="st0" d="M71.5,154.4c52.8,0,81.7-43.8,81.7-81.7c0-1.2,0-2.5-0.1-3.7c5.6-4.1,10.5-9.1,14.3-14.9
	c-5.2,2.3-10.8,3.8-16.5,4.5c6-3.6,10.5-9.2,12.6-15.9c-5.6,3.3-11.8,5.7-18.2,7c-10.9-11.6-29.1-12.1-40.6-1.2
	c-7.5,7-10.6,17.5-8.3,27.4c-23.1-1.2-44.6-12.1-59.2-30c-7.6,13.1-3.7,29.9,8.9,38.3c-4.6-0.1-9-1.4-13-3.6c0,0.1,0,0.2,0,0.4
	c0,13.7,9.6,25.4,23,28.2c-4.2,1.2-8.7,1.3-13,0.5c3.8,11.7,14.5,19.7,26.8,19.9c-10.2,8-22.7,12.3-35.7,12.3
	c-2.3,0-4.6-0.1-6.8-0.4C40.6,149.9,55.9,154.4,71.5,154.4"/>
</svg>
