<?xml version="1.0" encoding="utf-8"?>
<!-- Generator: Adobe Illustrator 21.1.0, SVG Export Plug-In . SVG Version: 6.00 Build 0)  -->
<svg version="1.1" id="Layer_1" xmlns="http://www.w3.org/2000/svg" xmlns:xlink="http://www.w3.org/1999/xlink" x="0px" y="0px"
	 viewBox="0 0 195 195" style="enable-background:new 0 0 195 195;" xml:space="preserve">
<style type="text/css">
	.st0{fill:#FFFFFF;}
</style>
<title>Monogram</title>
<desc>Created with Sketch.</desc>
<path id="White_2_" class="st0" d="M159.8,27.5H35.2c-4.3,0-7.7,3.5-7.7,7.7v124.5c0,4.3,3.5,7.7,7.7,7.7h67.1v-54.2H84V92.2h18.2
	V76.6c0-18.1,11-27.9,27.2-27.9c7.7,0,14.4,0.6,16.3,0.8v18.9l-11.2,0c-8.8,0-10.5,4.2-10.5,10.3v13.5H145l-2.7,21.1h-18.2v54.2
	h35.7c4.3,0,7.7-3.5,7.7-7.7V35.2C167.5,31,164,27.5,159.8,27.5z"/>
</svg>
